# xmcd
#
# Track frame offsets:
#	150
#	16095
#	41690
#	73282
#	86091
#	99003
#	120787
#
# Disc length: 1994 seconds
#
# Revision: 0
# Processed by: cddbd v1.5.2PL0 Copyright (c) Steve Scherf et al.
# Submitted via: EasyCDDAExtractor 11.1.0.1
#
DISCID=4a07c807
DTITLE=Ronimo - Seven
DYEAR=2002
DGENRE=Blues
TTITLE0=Mama Know's Best
TTITLE1=What It Is
TTITLE2=Reelin' In The Years
TTITLE3=Girl-U-Want
TTITLE4=Down The Line
TTITLE5=You Can't Win
TTITLE6=Backdoor Man
EXTD=
EXTT0=
EXTT1=
EXTT2=
EXTT3=
EXTT4=
EXTT5=
EXTT6=
PLAYORDER=
